# xmcd CD database file
#
# Track frame offsets:
#	150
#	20055
#	52599
#	98830
#
# Disc length: 1576 seconds
#
# Revision: 0
# Processed by: cddbd v1.5PL3 Copyright (c) Steve Scherf et al.
# Submitted via: CDex 1.51
#
DISCID=25062604
DTITLE=BEENY and PINK BUNNY - ID:404 -LAST PLANET-
DYEAR=2003
DGENRE=JPop
TTITLE0=ID:404 -LAST PLANET-
TTITLE1=Kiss! -reinterpretation: TRANCE RMX-
TTITLE2=Kiss! -reinterpretation: TRANCE DUB RMX-
TTITLE3=ID:404 -LAST PLANET- (instrumental)
EXTD=YEAR: 2003
EXTT0=
EXTT1=
EXTT2=
EXTT3=
PLAYORDER=
